HIERARCHY
ROOT newVegas:Hips
{
	OFFSET 0.000000 96.479958 0.000000
	CHANNELS 6 Xposition Yposition Zposition Xrotation Yrotation Zrotation
	JOINT newVegas:Pelvis
	{
		OFFSET 0.000000 0.000000 0.000000
		CHANNELS 3 Xrotation Yrotation Zrotation
		JOINT newVegas:LeftUpLeg
		{
			OFFSET 18.735201 -5.666702 -4.541200
			CHANNELS 3 Xrotation Yrotation Zrotation
			JOINT newVegas:LeftLeg
			{
				OFFSET -0.021200 -31.938179 0.493100
				CHANNELS 3 Xrotation Yrotation Zrotation
				JOINT newVegas:LeftFoot
				{
					OFFSET 0.021200 -31.938179 -4.336299
					CHANNELS 3 Xrotation Yrotation Zrotation
					JOINT newVegas:LeftToeBase
					{
						OFFSET 0.943001 -26.722000 15.023500
						CHANNELS 3 Xrotation Yrotation Zrotation
						End Site
						{
							OFFSET 0.000000 30.670183 0.000000
						}
					}
				}
				JOINT newVegas:Left_PantLeg
				{
					OFFSET 0.663870 -9.044666 -1.108900
					CHANNELS 3 Xrotation Yrotation Zrotation
					End Site
					{
						OFFSET 1.415995 20.635357 0.000000
					}
				}
			}
		}
		JOINT newVegas:RightUpLeg
		{
			OFFSET -18.735201 -5.666702 -4.541200
			CHANNELS 3 Xrotation Yrotation Zrotation
			JOINT newVegas:RightLeg
			{
				OFFSET 0.018946 -31.938133 0.493100
				CHANNELS 3 Xrotation Yrotation Zrotation
				JOINT newVegas:RightFoot
				{
					OFFSET -0.018946 -31.938126 -4.336299
					CHANNELS 3 Xrotation Yrotation Zrotation
					JOINT newVegas:RightToeBase
					{
						OFFSET -0.943001 -26.722004 15.023500
						CHANNELS 3 Xrotation Yrotation Zrotation
						End Site
						{
							OFFSET 0.000000 30.670187 0.000000
						}
					}
				}
				JOINT newVegas:Right_PantLeg
				{
					OFFSET -0.661674 -9.044716 -1.108900
					CHANNELS 3 Xrotation Yrotation Zrotation
					End Site
					{
						OFFSET -1.415958 20.635269 0.000000
					}
				}
			}
		}
	}
	JOINT newVegas:Spine
	{
		OFFSET 0.000000 10.199997 -0.299500
		CHANNELS 3 Xrotation Yrotation Zrotation
		JOINT newVegas:Spine1
		{
			OFFSET 0.000000 11.900002 -1.516600
			CHANNELS 3 Xrotation Yrotation Zrotation
			JOINT newVegas:Spine2
			{
				OFFSET 0.000000 13.600006 -2.842500
				CHANNELS 3 Xrotation Yrotation Zrotation
				JOINT newVegas:Neck
				{
					OFFSET 0.000000 9.624100 -2.890100
					CHANNELS 3 Xrotation Yrotation Zrotation
					JOINT newVegas:Head
					{
						OFFSET 0.000000 14.068802 -1.351900
						CHANNELS 3 Xrotation Yrotation Zrotation
						JOINT newVegas:Hair_Back
						{
							OFFSET 0.000000 3.231903 -17.524799
							CHANNELS 3 Xrotation Yrotation Zrotation
							End Site
							{
								OFFSET 0.000000 19.849884 0.000000
							}
						}
						JOINT newVegas:Hair_Front
						{
							OFFSET 0.000000 31.260406 4.573800
							CHANNELS 3 Xrotation Yrotation Zrotation
							JOINT newVegas:Hair_Front1
							{
								OFFSET 0.000000 2.284103 11.993300
								CHANNELS 3 Xrotation Yrotation Zrotation
								JOINT newVegas:Hair_Front2
								{
									OFFSET 0.000000 2.284103 11.993300
									CHANNELS 3 Xrotation Yrotation Zrotation
									End Site
									{
										OFFSET 0.000000 12.208862 0.000000
									}
								}
							}
						}
						JOINT newVegas:Jowel
						{
							OFFSET 0.000000 -7.458206 6.864100
							CHANNELS 3 Xrotation Yrotation Zrotation
							End Site
							{
								OFFSET 0.000000 19.849884 0.000000
							}
						}
					}
				}
				JOINT newVegas:LeftShoulder
				{
					OFFSET 15.263000 10.923401 -0.547700
					CHANNELS 3 Xrotation Yrotation Zrotation
					JOINT newVegas:LeftArm
					{
						OFFSET 25.438599 -2.830597 -13.032500
						CHANNELS 3 Xrotation Yrotation Zrotation
						JOINT newVegas:LeftForeArm
						{
							OFFSET 29.960503 0.000000 0.000000
							CHANNELS 3 Xrotation Yrotation Zrotation
							JOINT newVegas:LeftHand
							{
								OFFSET 27.849251 0.000000 0.000000
								CHANNELS 3 Xrotation Yrotation Zrotation
								JOINT newVegas:LeftHandThumb1
								{
									OFFSET 4.487587 -3.305161 6.305391
									CHANNELS 3 Xrotation Yrotation Zrotation
									JOINT newVegas:LeftHandThumb2
									{
										OFFSET 5.480453 -3.164139 3.164143
										CHANNELS 3 Xrotation Yrotation Zrotation
										JOINT newVegas:LeftHandThumb3
										{
											OFFSET 5.159721 -2.978973 2.978967
											CHANNELS 3 Xrotation Yrotation Zrotation
											End Site
											{
												OFFSET 2.494507 5.926697 1.738678
											}
										}
									}
								}
								JOINT newVegas:LeftHandIndex1
								{
									OFFSET 18.578728 -0.527832 5.208049
									CHANNELS 3 Xrotation Yrotation Zrotation
									JOINT newVegas:LeftHandIndex2
									{
										OFFSET 3.192009 0.000000 0.000000
										CHANNELS 3 Xrotation Yrotation Zrotation
										JOINT newVegas:LeftHandIndex3
										{
											OFFSET 3.835129 0.000000 0.000000
											CHANNELS 3 Xrotation Yrotation Zrotation
											End Site
											{
												OFFSET -0.034599 3.816971 0.371180
											}
										}
									}
								}
								JOINT newVegas:LeftHandMiddle1
								{
									OFFSET 18.476105 0.000000 0.000000
									CHANNELS 3 Xrotation Yrotation Zrotation
									JOINT newVegas:LeftHandMiddle2
									{
										OFFSET 3.324875 0.000000 0.000000
										CHANNELS 3 Xrotation Yrotation Zrotation
										JOINT newVegas:LeftHandMiddle3
										{
											OFFSET 4.596550 0.000000 0.000000
											CHANNELS 3 Xrotation Yrotation Zrotation
											End Site
											{
												OFFSET 0.057701 4.578827 0.399218
											}
										}
									}
								}
								JOINT newVegas:LeftHandRing1
								{
									OFFSET 17.732719 0.121887 -4.201567
									CHANNELS 3 Xrotation Yrotation Zrotation
									JOINT newVegas:LeftHandRing2
									{
										OFFSET 2.733170 0.000000 0.000000
										CHANNELS 3 Xrotation Yrotation Zrotation
										JOINT newVegas:LeftHandRing3
										{
											OFFSET 3.178268 0.000000 0.000000
											CHANNELS 3 Xrotation Yrotation Zrotation
											End Site
											{
												OFFSET 0.119102 3.170624 0.185394
											}
										}
									}
								}
								JOINT newVegas:LeftHandPinky1
								{
									OFFSET 15.989624 -0.606689 -7.535461
									CHANNELS 3 Xrotation Yrotation Zrotation
									JOINT newVegas:LeftHandPinky2
									{
										OFFSET 2.538986 0.000000 0.000000
										CHANNELS 3 Xrotation Yrotation Zrotation
										JOINT newVegas:LeftHandPinky3
										{
											OFFSET 2.593102 0.000000 0.000000
											CHANNELS 3 Xrotation Yrotation Zrotation
											End Site
											{
												OFFSET -0.150902 2.584198 0.152708
											}
										}
									}
								}
							}
							JOINT newVegas:Left_Sleeve
							{
								OFFSET 0.267448 -0.649796 0.577675
								CHANNELS 3 Xrotation Yrotation Zrotation
								End Site
								{
									OFFSET 0.000000 15.991241 0.000000
								}
							}
							JOINT newVegas:Left_CapeC
							{
								OFFSET 15.715958 -8.608795 -6.935905
								CHANNELS 3 Xrotation Yrotation Zrotation
								JOINT newVegas:Left_CapeC1
								{
									OFFSET 0.000000 -8.688499 0.000000
									CHANNELS 3 Xrotation Yrotation Zrotation
									End Site
									{
										OFFSET 0.000000 8.688499 0.000000
									}
								}
							}
						}
						JOINT newVegas:Left_CapeB
						{
							OFFSET 26.118385 -8.608795 -7.079235
							CHANNELS 3 Xrotation Yrotation Zrotation
							JOINT newVegas:Left_CapeB1
							{
								OFFSET 0.000000 -8.688499 0.000000
								CHANNELS 3 Xrotation Yrotation Zrotation
								End Site
								{
									OFFSET 0.000000 8.688499 0.000000
								}
							}
						}
						JOINT newVegas:Left_CapeA
						{
							OFFSET 5.115639 -8.608795 -10.395809
							CHANNELS 3 Xrotation Yrotation Zrotation
							JOINT newVegas:Left_CapeA1
							{
								OFFSET 0.000000 -8.688499 0.000000
								CHANNELS 3 Xrotation Yrotation Zrotation
								End Site
								{
									OFFSET 0.000000 8.688499 0.000000
								}
							}
						}
					}
				}
				JOINT newVegas:RightShoulder
				{
					OFFSET -15.263000 10.923401 -0.547700
					CHANNELS 3 Xrotation Yrotation Zrotation
					JOINT newVegas:RightArm
					{
						OFFSET -25.438599 -2.830597 -13.032500
						CHANNELS 3 Xrotation Yrotation Zrotation
						JOINT newVegas:RightForeArm
						{
							OFFSET -29.960503 0.000000 0.000000
							CHANNELS 3 Xrotation Yrotation Zrotation
							JOINT newVegas:RightHand
							{
								OFFSET -27.849251 0.000000 0.000000
								CHANNELS 3 Xrotation Yrotation Zrotation
								JOINT newVegas:RightHandThumb1
								{
									OFFSET -4.487587 -3.305161 6.305391
									CHANNELS 3 Xrotation Yrotation Zrotation
									JOINT newVegas:RightHandThumb2
									{
										OFFSET -5.480453 -3.164139 3.164143
										CHANNELS 3 Xrotation Yrotation Zrotation
										JOINT newVegas:RightHandThumb3
										{
											OFFSET -5.159721 -2.978973 2.978967
											CHANNELS 3 Xrotation Yrotation Zrotation
											End Site
											{
												OFFSET -2.494507 5.926697 1.738678
											}
										}
									}
								}
								JOINT newVegas:RightHandIndex1
								{
									OFFSET -18.578728 -0.527832 5.208049
									CHANNELS 3 Xrotation Yrotation Zrotation
									JOINT newVegas:RightHandIndex2
									{
										OFFSET -3.192009 0.000000 0.000000
										CHANNELS 3 Xrotation Yrotation Zrotation
										JOINT newVegas:RightHandIndex3
										{
											OFFSET -3.835129 0.000000 0.000000
											CHANNELS 3 Xrotation Yrotation Zrotation
											End Site
											{
												OFFSET 0.034599 3.816971 0.371180
											}
										}
									}
								}
								JOINT newVegas:RightHandMiddle1
								{
									OFFSET -18.476105 0.000000 0.000000
									CHANNELS 3 Xrotation Yrotation Zrotation
									JOINT newVegas:RightHandMiddle2
									{
										OFFSET -3.324875 0.000000 0.000000
										CHANNELS 3 Xrotation Yrotation Zrotation
										JOINT newVegas:RightHandMiddle3
										{
											OFFSET -4.596550 0.000000 0.000000
											CHANNELS 3 Xrotation Yrotation Zrotation
											End Site
											{
												OFFSET -0.057701 4.578827 0.399218
											}
										}
									}
								}
								JOINT newVegas:RightHandRing1
								{
									OFFSET -17.732719 0.121887 -4.201567
									CHANNELS 3 Xrotation Yrotation Zrotation
									JOINT newVegas:RightHandRing2
									{
										OFFSET -2.733170 0.000000 0.000000
										CHANNELS 3 Xrotation Yrotation Zrotation
										JOINT newVegas:RightHandRing3
										{
											OFFSET -3.178268 0.000000 0.000000
											CHANNELS 3 Xrotation Yrotation Zrotation
											End Site
											{
												OFFSET -0.119102 3.170624 0.185394
											}
										}
									}
								}
								JOINT newVegas:RightHandPinky1
								{
									OFFSET -15.989624 -0.606689 -7.535461
									CHANNELS 3 Xrotation Yrotation Zrotation
									JOINT newVegas:RightHandPinky2
									{
										OFFSET -2.538986 0.000000 0.000000
										CHANNELS 3 Xrotation Yrotation Zrotation
										JOINT newVegas:RightHandPinky3
										{
											OFFSET -2.593102 0.000000 0.000000
											CHANNELS 3 Xrotation Yrotation Zrotation
											End Site
											{
												OFFSET 0.150902 2.584198 0.152708
											}
										}
									}
								}
							}
							JOINT newVegas:Right_CapeC
							{
								OFFSET -15.715958 -8.608795 -6.935905
								CHANNELS 3 Xrotation Yrotation Zrotation
								JOINT newVegas:Right_CapeC1
								{
									OFFSET 0.000000 -8.688499 0.000000
									CHANNELS 3 Xrotation Yrotation Zrotation
									End Site
									{
										OFFSET 0.000000 8.688499 0.000000
									}
								}
							}
							JOINT newVegas:Right_Sleeve
							{
								OFFSET -0.267448 -0.649994 0.577675
								CHANNELS 3 Xrotation Yrotation Zrotation
								End Site
								{
									OFFSET 0.000000 15.991302 0.000000
								}
							}
						}
						JOINT newVegas:Right_CapeA
						{
							OFFSET -5.115540 -8.608795 -10.395824
							CHANNELS 3 Xrotation Yrotation Zrotation
							JOINT newVegas:Right_CapeA1
							{
								OFFSET 0.000000 -8.688499 0.000000
								CHANNELS 3 Xrotation Yrotation Zrotation
								End Site
								{
									OFFSET 0.000000 8.688499 0.000000
								}
							}
						}
						JOINT newVegas:Right_CapeB
						{
							OFFSET -26.118187 -8.608795 -7.079266
							CHANNELS 3 Xrotation Yrotation Zrotation
							JOINT newVegas:Right_CapeB1
							{
								OFFSET 0.000000 -8.688499 0.000000
								CHANNELS 3 Xrotation Yrotation Zrotation
								End Site
								{
									OFFSET 0.000000 8.688499 0.000000
								}
							}
						}
					}
				}
				JOINT newVegas:Left_Collar
				{
					OFFSET 18.625099 8.655502 8.828100
					CHANNELS 3 Xrotation Yrotation Zrotation
					JOINT newVegas:Left_Collar1
					{
						OFFSET 14.783401 10.540405 -1.259500
						CHANNELS 3 Xrotation Yrotation Zrotation
						End Site
						{
							OFFSET 0.000000 18.199875 0.000000
						}
					}
				}
				JOINT newVegas:Collar_Back
				{
					OFFSET 0.000000 15.630707 -20.132601
					CHANNELS 3 Xrotation Yrotation Zrotation
					End Site
					{
						OFFSET 0.000000 22.523010 0.000000
					}
				}
				JOINT newVegas:Left_Peck
				{
					OFFSET 17.239599 -5.132599 25.482599
					CHANNELS 3 Xrotation Yrotation Zrotation
					End Site
					{
						OFFSET 0.000000 22.523010 0.000000
					}
				}
				JOINT newVegas:Right_Peck
				{
					OFFSET -17.239599 -5.132202 25.482599
					CHANNELS 3 Xrotation Yrotation Zrotation
					End Site
					{
						OFFSET 0.000000 22.523010 0.000000
					}
				}
				JOINT newVegas:Right_Collar
				{
					OFFSET -18.625099 8.655792 8.828100
					CHANNELS 3 Xrotation Yrotation Zrotation
					JOINT newVegas:Right_Collar1
					{
						OFFSET -14.783401 10.539993 -1.259500
						CHANNELS 3 Xrotation Yrotation Zrotation
						End Site
						{
							OFFSET 0.000000 18.199631 0.000000
						}
					}
				}
			}
		}
		JOINT newVegas:Belly
		{
			OFFSET 0.000000 -6.540398 9.014299
			CHANNELS 3 Xrotation Yrotation Zrotation
			End Site
			{
				OFFSET 0.000000 11.566666 0.000000
			}
		}
	}
	JOINT newVegas:ElvisFacialAnim_Joint
	{
		OFFSET 1.000000 -95.330101 -8.825800
		CHANNELS 3 Xrotation Yrotation Zrotation
		End Site
		{
			OFFSET 0.000000 35.315800 0.000000
		}
	}
}
MOTION
Frames: 4
Frame Time: 0.016667
3.225018 31.038376 -15.507381 35.526034 3.116214 1.958242 0.000000 -0.000000 -0.000000 -89.761144 -20.554848 7.218719 129.000758 -6.702016 -2.501720 46.386379 1.903111 -25.625698 -0.000001 -0.000002 -0.000001 0.000001 0.000000 -0.000000 -81.259526 30.529170 -20.653526 130.035682 13.561852 3.617725 36.607102 10.629613 18.576612 0.000000 -0.000001 -0.000000 0.000001 0.000001 -0.000000 20.857485 4.980760 -5.459911 16.625270 2.079678 -1.485669 17.328741 1.234475 -2.301335 2.173985 -0.641958 1.296237 2.173994 -0.641961 1.296237 0.000001 0.000000 0.000000 2.174026 -0.641960 1.296234 2.173963 -0.641961 1.296239 0.000000 -0.000000 -0.000000 0.000001 0.000000 0.000000 1.353982 -36.456647 -6.881261 -62.004498 -39.879880 -54.567723 -0.000017 -60.951843 -0.000044 -18.879874 -14.506197 -10.306269 46.706842 -54.290916 -12.631198 3.448270 53.010854 10.295005 -0.000002 -0.000004 -0.000005 6.697754 5.391178 -58.720455 3.793604 5.478573 -69.379873 0.000001 0.000002 -0.000002 -2.544103 3.154077 -51.895224 5.923333 5.850600 -90.709113 -0.000000 0.000001 -0.000001 0.963614 5.963265 -53.197888 4.594751 5.715025 -77.580185 -0.000000 0.000001 0.000001 -0.907389 26.005037 -39.715491 3.064066 5.146675 -61.512602 -0.000002 -0.000002 0.000001 0.000001 0.000002 0.000001 0.000001 0.000002 0.000001 0.000001 0.000002 0.000002 0.000000 0.000000 -0.000000 0.000000 0.000000 -0.000000 0.000000 0.000000 -0.000000 -0.000001 0.000000 -0.000000 0.501201 13.720771 0.229932 -44.186874 22.328133 43.767910 0.000021 66.682003 -0.000017 -26.725439 16.671160 -4.018005 69.260208 51.829886 -9.321564 -17.238390 -69.068321 -27.413593 0.000001 -0.000004 0.000001 4.914257 -3.615839 60.176501 3.071677 -4.379539 70.075931 0.000003 0.000000 -0.000000 0.967454 -5.391914 56.500404 4.691373 -4.657033 90.421569 0.000001 0.000000 0.000000 3.739672 -7.060317 61.039297 4.198918 -4.634593 84.346921 0.000001 -0.000003 -0.000000 1.020335 -22.211490 53.091873 2.717036 -4.234606 65.356762 0.000002 -0.000000 0.000000 0.000003 0.000001 -0.000001 0.000002 -0.000001 -0.000003 0.000003 0.000000 0.000001 -0.000001 0.000001 0.000001 -0.000001 0.000002 0.000000 -0.000001 0.000001 0.000001 -0.000001 0.000002 0.000001 -0.000000 0.000001 -0.000000 -0.000000 0.000001 -0.000000 -0.000000 0.000001 -0.000000 -0.000000 0.000001 -0.000000 -0.000000 0.000001 -0.000000 -0.000000 0.000001 -0.000000 -0.000000 0.000001 -0.000000 0.000003 0.000000 0.000001 0.000000 -0.000000 -0.000000 
2.932974 30.993904 -15.943859 33.211966 2.262266 1.985174 -0.000000 0.000000 0.000000 -87.530397 -21.344338 8.176937 129.719199 -7.803665 -2.423390 46.102199 1.920475 -26.256871 -0.000001 -0.000002 -0.000001 0.000002 0.000000 0.000001 -81.524243 30.046282 -18.751953 130.931721 13.221596 2.928481 37.415114 10.324932 18.790405 -0.000002 0.000001 -0.000003 0.000000 -0.000000 0.000000 21.186588 4.684180 -6.193035 17.022969 1.980984 -1.805813 18.108129 1.141503 -2.575391 2.229323 -0.643322 1.370111 2.229336 -0.643321 1.370115 0.000000 0.000000 -0.000000 2.229369 -0.643313 1.370112 2.229337 -0.643328 1.370118 -0.000001 0.000000 0.000000 0.000000 0.000000 -0.000001 0.477531 -34.381799 -9.362749 -61.426166 -41.959409 -53.402223 0.000006 -61.272910 0.000004 -22.963478 -13.256070 -12.254842 46.706398 -54.290448 -12.630053 3.450862 53.011297 10.293417 0.000004 -0.000003 -0.000001 6.698391 5.389837 -58.719942 3.793576 5.478548 -69.379395 -0.000000 -0.000002 -0.000001 -2.545122 3.153130 -51.894203 5.923212 5.850594 -90.707876 0.000000 0.000001 -0.000001 0.964035 5.963663 -53.199292 4.594588 5.715013 -77.578607 0.000000 0.000003 -0.000002 -0.905727 26.004156 -39.717243 3.064164 5.146730 -61.513879 -0.000001 -0.000002 0.000001 -0.000000 0.000001 -0.000001 -0.000000 0.000001 -0.000001 -0.000000 0.000001 -0.000001 -0.000001 0.000001 0.000000 -0.000001 0.000001 0.000000 -0.000001 0.000001 0.000000 -0.000001 0.000001 0.000001 0.583478 12.269620 0.145180 -46.315226 24.522703 46.813464 -0.000006 65.396056 -0.000008 -21.012623 17.831703 -3.834774 69.234158 51.862098 -9.337214 -17.171522 -69.029109 -27.340703 -0.000000 0.000002 -0.000002 4.909869 -3.611824 60.155047 3.069780 -4.378848 70.051383 -0.000000 0.000001 0.000001 0.966408 -5.390592 56.478909 4.689389 -4.657053 90.396987 -0.000001 0.000000 0.000001 3.737779 -7.059866 61.017686 4.196922 -4.634403 84.322333 -0.000001 -0.000001 0.000000 1.013334 -22.210952 53.073312 2.715622 -4.233946 65.337624 -0.000001 -0.000000 0.000001 -0.000001 0.000003 0.000003 -0.000001 -0.000001 0.000000 -0.000001 0.000003 0.000003 -0.000001 -0.000002 -0.000002 -0.000001 -0.000001 -0.000003 -0.000001 -0.000002 -0.000002 -0.000001 -0.000001 -0.000002 -0.000000 -0.000001 0.000002 -0.000000 -0.000001 0.000002 -0.000000 -0.000001 0.000002 -0.000000 -0.000001 0.000002 -0.000000 -0.000001 0.000002 -0.000000 -0.000001 0.000002 -0.000000 -0.000001 0.000002 -0.000001 -0.000000 -0.000000 -0.000000 0.000000 0.000000 
2.725234 31.000816 -16.228855 31.501881 1.659524 1.978119 0.000000 0.000000 -0.000000 -85.752622 -21.826173 8.891715 130.156331 -8.453545 -2.336104 45.861408 1.879986 -26.629524 -0.000001 -0.000002 -0.000000 -0.000002 0.000001 -0.000000 -81.483877 29.716456 -17.411262 131.458657 13.313098 2.549026 37.919605 9.861725 19.179318 -0.000001 -0.000000 -0.000000 0.000001 -0.000001 -0.000000 21.395988 4.320271 -6.591522 17.202557 1.870332 -1.986118 18.500460 1.040075 -2.690534 2.256216 -0.631515 1.381148 2.256199 -0.631516 1.381145 0.000000 0.000000 0.000000 2.256246 -0.631518 1.381147 2.256115 -0.631519 1.381144 0.000000 0.000000 0.000001 0.000000 0.000000 -0.000001 -0.501352 -31.291071 -12.871380 -60.476742 -44.977359 -51.911763 -0.000005 -61.886507 -0.000004 -28.497578 -11.740398 -12.578102 46.706094 -54.289909 -12.628693 3.453594 53.011759 10.291781 0.000002 -0.000001 -0.000004 6.699132 5.388248 -58.718754 3.793477 5.478517 -69.378241 0.000000 -0.000000 -0.000000 -2.546225 3.152086 -51.892991 5.923073 5.850609 -90.706572 0.000003 0.000000 -0.000002 0.964524 5.964061 -53.200716 4.594428 5.714972 -77.576906 0.000001 0.000003 -0.000001 -0.903881 26.003159 -39.719165 3.064288 5.146800 -61.515375 0.000001 -0.000001 -0.000002 -0.000000 0.000002 -0.000001 -0.000000 0.000002 -0.000001 -0.000000 0.000002 -0.000000 -0.000001 -0.000001 0.000000 -0.000001 0.000000 0.000000 -0.000001 -0.000001 0.000000 -0.000003 -0.000000 0.000000 0.552210 11.477479 0.087594 -48.643193 26.757886 49.917157 -0.000021 63.773592 0.000033 -14.598394 19.870917 -3.658891 69.205608 51.896409 -9.358305 -17.081408 -68.975963 -27.242215 0.000002 -0.000005 -0.000001 4.904431 -3.606891 60.131080 3.067709 -4.378090 70.024021 0.000001 -0.000001 -0.000001 0.965185 -5.389090 56.454963 4.687168 -4.657065 90.369577 -0.000002 -0.000001 0.000000 3.735623 -7.059406 60.993610 4.194733 -4.634185 84.294903 -0.000000 -0.000001 -0.000002 1.005561 -22.210329 53.052634 2.714052 -4.233234 65.316259 0.000001 -0.000002 0.000000 0.000002 0.000001 -0.000000 0.000002 0.000001 -0.000004 0.000002 0.000001 0.000001 -0.000001 -0.000002 -0.000001 -0.000001 -0.000001 -0.000002 -0.000001 -0.000002 -0.000001 -0.000001 -0.000001 -0.000002 -0.000000 -0.000000 0.000001 -0.000000 -0.000000 0.000001 -0.000000 -0.000000 0.000001 -0.000000 -0.000000 0.000001 -0.000000 -0.000000 0.000001 -0.000000 -0.000000 0.000001 -0.000000 -0.000000 0.000001 0.000002 -0.000001 0.000001 0.000000 0.000000 -0.000000 
2.566176 31.030426 -16.434925 30.138309 1.184815 1.960768 0.000004 -0.000000 -0.000000 -84.235514 -22.265674 9.495842 130.439510 -8.822846 -2.340214 45.654347 1.724480 -26.758490 -0.000001 0.000000 0.000000 0.000002 -0.000000 -0.000000 -81.326762 29.497593 -16.399231 131.793008 13.713679 2.357871 38.284771 9.257544 19.646720 0.000002 0.000001 -0.000002 0.000001 0.000001 -0.000000 21.515832 3.963799 -6.846104 17.308529 1.764368 -2.107502 18.739556 0.943236 -2.743025 2.272925 -0.615417 1.367201 2.272942 -0.615411 1.367190 -0.000000 -0.000000 0.000001 2.272996 -0.615423 1.367202 2.272936 -0.615406 1.367195 -0.000001 0.000000 0.000001 -0.000000 -0.000000 0.000001 -1.190611 -27.773398 -16.681115 -58.867427 -47.971615 -49.903326 -0.000037 -63.757644 -0.000037 -34.031260 -10.583145 -11.107780 46.705704 -54.289291 -12.627147 3.456456 53.012315 10.290176 -0.000003 0.000001 -0.000006 6.699903 5.386510 -58.717415 3.793340 5.478476 -69.376977 0.000000 -0.000004 -0.000003 -2.547365 3.151030 -51.891802 5.922920 5.850599 -90.705049 -0.000001 0.000001 0.000000 0.965012 5.964494 -53.202222 4.594256 5.714932 -77.575171 0.000000 0.000005 -0.000000 -0.902011 26.002098 -39.721143 3.064455 5.146882 -61.517041 -0.000002 0.000000 0.000001 0.000000 -0.000002 -0.000001 0.000000 -0.000002 -0.000001 0.000000 -0.000001 -0.000000 0.000002 -0.000001 0.000000 0.000002 -0.000001 0.000000 0.000002 -0.000001 0.000000 0.000002 -0.000001 0.000000 0.425780 11.211947 0.063304 -50.733593 28.440168 52.955590 -0.000026 62.997560 0.000016 -8.850930 21.981439 -3.713550 69.176006 51.931236 -9.384744 -16.972064 -68.909328 -27.122633 0.000000 -0.000003 -0.000004 4.898571 -3.601248 60.105494 3.065477 -4.377274 69.994802 -0.000002 0.000001 0.000000 0.963889 -5.387461 56.429367 4.684778 -4.657091 90.340330 -0.000001 -0.000001 -0.000000 3.733390 -7.058902 60.967915 4.192348 -4.633938 84.265649 0.000000 -0.000001 0.000001 0.997346 -22.209634 53.030586 2.712370 -4.232466 65.293467 0.000003 -0.000005 0.000001 0.000002 0.000001 0.000002 0.000001 0.000001 -0.000001 0.000002 0.000001 0.000003 -0.000001 0.000000 -0.000000 -0.000001 -0.000001 -0.000001 -0.000001 0.000000 -0.000000 -0.000001 -0.000001 -0.000001 0.000000 0.000000 0.000000 0.000000 0.000000 0.000000 0.000000 0.000000 0.000000 0.000000 0.000000 0.000000 0.000000 0.000000 0.000000 0.000000 0.000000 0.000000 0.000000 0.000000 0.000000 0.000002 -0.000000 -0.000001 0.000004 -0.000000 -0.000000 
